<?xml version="1.0" encoding="utf-8"?>
<!-- Generator: Adobe Illustrator 21.0.2, SVG Export Plug-In . SVG Version: 6.00 Build 0)  -->
<svg version="1.1" id="Message" xmlns="http://www.w3.org/2000/svg" xmlns:xlink="http://www.w3.org/1999/xlink" x="0px" y="0px"
	 viewBox="0 0 792 612" style="enable-background:new 0 0 792 612;" xml:space="preserve">
<style type="text/css">
	.st0{fill:#F37A77;}
	.st1{fill:#FDFDFD;}
	.st2{fill:#FEFEFE;}
</style>
<circle class="st0" cx="411" cy="311.9" r="211.3"/>
<g id="message">
	<g>
		<path class="st1" d="M515.2,256.9c0,1.8,0,2.7,0,3.7c0,35-0.2,70,0.1,105c0.1,9.4-4.7,13.7-11.7,17.1c-4.9,2.4-10.2,2.9-15.5,2.9
			c-51.3,0-102.7,0-154,0c-7,0-13.7-1.1-19.7-5c-4.9-3.2-7.7-7.3-7.7-13.5c0.1-35.2,0.1-70.3,0.1-105.5c0-0.9,0-1.8,0-2.7
			c1.3,0.1,1.6,0.9,2.1,1.5c23.7,25.3,47.2,50.8,71.8,75.3c17.7,17.6,43.6,17.6,60.6,0.1c23.9-24.7,47.4-49.9,70.7-75.3
			C512.8,259.4,513.7,258.4,515.2,256.9z"/>
		<path class="st2" d="M412.1,329c-7.5-0.2-13.5-2.7-18.2-7.6c-24.6-25.6-49.1-51.3-73.4-77.2c-1.8-1.9-1.7-2.2,0.8-3.1
			c5.5-1.9,11.1-2.7,16.9-2.7c48.8-0.2,97.5-0.3,146.3-0.3c5.4,0,10.8,0.7,15.9,2.6c2.4,0.9,2.4,1,0.5,3.1
			c-9.6,10.3-19.1,20.7-28.8,31c-14.8,15.8-29.7,31.5-44.6,47.2C423.1,326.5,417.7,328.7,412.1,329z"/>
	</g>
</g>
</svg>
